<svg xmlns="http://www.w3.org/2000/svg" class="footer-logo" viewBox="0 0 210 194" width="65" height="60"> <path class="logo-svg-shape logo-dark-orange-shape" fill="#e24329" d="M 105.061 193.655 L 105.061 193.655 L 143.701 74.734 L 66.4214 74.734 L 105.061 193.655 L 105.061 193.655 Z" /> <path class="logo-svg-shape logo-orange-shape" fill="#fc6d26" d="M 105.061 193.655 L 66.4214 74.7338 L 12.2684 74.7338 L 105.061 193.655 Z" /> <path class="logo-svg-shape logo-light-orange-shape" fill="#fca326" d="M 12.2685 74.7341 L 12.2685 74.7341 L 0.5265 110.873 C -0.5445 114.169 0.6285 117.78 3.4325 119.817 L 105.062 193.655 L 12.2685 74.7341 Z" /> <path class="logo-svg-shape logo-dark-orange-shape" fill="#e24329" d="M 12.2685 74.7342 L 66.4215 74.7342 L 43.1485 3.1092 C 41.9515 -0.5768 36.7375 -0.5758 35.5405 3.1092 L 12.2685 74.7342 Z" /> <path class="logo-svg-shape logo-orange-shape" fill="#fc6d26" d="M 105.061 193.655 L 143.701 74.7338 L 197.854 74.7338 L 105.061 193.655 Z" /> <path class="logo-svg-shape logo-light-orange-shape" fill="#fca326" d="M 197.854 74.7341 L 197.854 74.7341 L 209.596 110.873 C 210.667 114.169 209.494 117.78 206.69 119.817 L 105.061 193.655 L 197.854 74.7341 Z" /> <path class="logo-svg-shape logo-dark-orange-shape" fill="#e24329" d="M 197.854 74.7342 L 143.701 74.7342 L 166.974 3.1092 C 168.171 -0.5768 173.385 -0.5758 174.582 3.1092 L 197.854 74.7342 Z" /> </svg>